<?xml version="1.0" encoding="utf-8"?>
<!-- Generator: Adobe Illustrator 27.0.0, SVG Export Plug-In . SVG Version: 6.00 Build 0)  -->
<svg version="1.1" id="Layer_1" xmlns="http://www.w3.org/2000/svg" xmlns:xlink="http://www.w3.org/1999/xlink" x="0px" y="0px"
	 viewBox="0 0 48 48" style="enable-background:new 0 0 48 48;" xml:space="preserve">
<style type="text/css">
	.st0{fill:#4898A0;}
</style>
<path class="st0" d="M2.1,42v-4.6c0-1.1,0.3-2.1,0.8-2.8s1.3-1.4,2.2-1.8c1.8-0.9,3.7-1.6,5.8-2.1c2-0.6,4.4-0.9,7-0.9
	s4.9,0.3,7,0.9c2.1,0.6,4,1.3,5.8,2.1c1,0.5,1.7,1.1,2.3,1.8s0.8,1.7,0.8,2.8V42H2.1z M5.1,39h25.6v-1.6c0-0.5-0.1-0.9-0.4-1.2
	s-0.6-0.6-1-0.7c-1.4-0.6-3-1.2-4.8-1.8c-1.8-0.6-4-0.9-6.5-0.9s-4.8,0.3-6.6,0.9c-1.8,0.6-3.4,1.2-4.8,1.8c-0.4,0.2-0.7,0.4-1,0.7
	c-0.3,0.3-0.4,0.7-0.4,1.2V39z M17.9,26.8c-2.2,0-4-0.7-5.4-2.1c-1.4-1.4-2.1-3.2-2.1-5.4H9.9c-0.3,0-0.5-0.1-0.7-0.3
	c-0.2-0.2-0.3-0.4-0.3-0.7c0-0.3,0.1-0.5,0.3-0.7c0.2-0.2,0.4-0.3,0.7-0.3h0.5c0-1.3,0.3-2.5,1-3.6c0.7-1.1,1.5-1.9,2.6-2.6v2
	c0,0.2,0.1,0.4,0.2,0.5c0.1,0.2,0.3,0.2,0.5,0.2c0.2,0,0.4-0.1,0.6-0.2c0.1-0.1,0.2-0.3,0.2-0.5v-2.6c0.3-0.1,0.6-0.1,1.1-0.2
	c0.5-0.1,0.9-0.1,1.4-0.1s0.9,0,1.4,0.1c0.5,0,0.8,0.1,1.1,0.2V13c0,0.2,0.1,0.4,0.2,0.5c0.1,0.2,0.3,0.2,0.5,0.2
	c0.2,0,0.4-0.1,0.5-0.2c0.2-0.1,0.2-0.3,0.2-0.5v-1.9c1.1,0.7,1.9,1.5,2.5,2.6s1,2.3,1,3.6h0.5c0.3,0,0.5,0.1,0.7,0.3
	s0.3,0.4,0.3,0.7c0,0.3-0.1,0.5-0.3,0.7c-0.2,0.2-0.4,0.3-0.7,0.3h-0.5c0,2.1-0.7,3.9-2.1,5.4C21.9,26,20.1,26.8,17.9,26.8z
	 M17.9,23.8c1.4,0,2.5-0.4,3.3-1.2c0.8-0.8,1.2-1.9,1.2-3.2h-9c0,1.3,0.4,2.4,1.2,3.2C15.4,23.3,16.5,23.8,17.9,23.8z M33,30
	l-0.1-1.5c-0.2-0.1-0.5-0.3-0.7-0.5c-0.2-0.2-0.5-0.3-0.7-0.5l-1.3,0.7l-1.1-1.6l1.3-1c-0.1-0.1-0.1-0.3-0.1-0.4v-0.8
	c0-0.1,0-0.2,0.1-0.4l-1.3-1l1.1-1.6l1.3,0.7l0.7-0.5c0.2-0.2,0.5-0.3,0.7-0.5l0.1-1.5h2l0.1,1.5c0.2,0.1,0.5,0.3,0.7,0.5l0.7,0.5
	l1.3-0.7l1.1,1.6l-1.3,1c0.1,0.1,0.1,0.3,0.1,0.4v0.8c0,0.1,0,0.2-0.1,0.4l1.3,1l-1.1,1.6l-1.3-0.7c-0.2,0.2-0.4,0.3-0.7,0.5
	c-0.2,0.2-0.5,0.3-0.7,0.5L35,30H33z M34,26.9c0.5,0,1-0.2,1.3-0.5c0.4-0.4,0.5-0.8,0.5-1.4s-0.2-1-0.5-1.4C35,23.2,34.5,23,34,23
	c-0.5,0-1,0.2-1.3,0.5s-0.5,0.8-0.5,1.4c0,0.5,0.2,1,0.5,1.4S33.5,26.9,34,26.9z M38.4,19.1L38,17.4c-0.3-0.1-0.7-0.3-1-0.5
	c-0.4-0.2-0.6-0.5-0.9-0.8l-2.2,0.8l-1-1.8l1.8-1.4c-0.1-0.2-0.1-0.3-0.2-0.6c0-0.2-0.1-0.4-0.1-0.6c0-0.2,0-0.4,0.1-0.6
	c0.1-0.2,0.1-0.4,0.2-0.6L32.8,10l1-1.8L36,9.1c0.2-0.3,0.5-0.5,0.9-0.8c0.3-0.2,0.7-0.4,1-0.5L38.4,6h1.9l0.5,1.8
	c0.3,0.1,0.7,0.3,1,0.5c0.3,0.2,0.6,0.5,0.9,0.8l2.2-0.8l1,1.8l-1.8,1.4c0.1,0.2,0.1,0.4,0.2,0.6c0.1,0.2,0.1,0.4,0.1,0.6
	s0,0.4-0.1,0.6c0,0.2-0.1,0.4-0.2,0.6l1.8,1.4l-1,1.7L42.7,16c-0.2,0.3-0.5,0.5-0.9,0.8c-0.4,0.2-0.7,0.4-1,0.5l-0.5,1.8L38.4,19.1z
	 M39.4,15.5c0.8,0,1.5-0.3,2.1-0.8c0.5-0.6,0.8-1.2,0.8-2.1c0-0.8-0.3-1.5-0.8-2.1c-0.5-0.5-1.2-0.8-2.1-0.8c-0.8,0-1.5,0.3-2.1,0.8
	c-0.5,0.6-0.8,1.2-0.8,2.1c0,0.8,0.3,1.5,0.8,2.1C37.8,15.2,38.5,15.5,39.4,15.5z M5.1,39h25.6H5.1z"/>
</svg>
