<?xml version="1.0" encoding="utf-8"?>
<!-- Generator: Adobe Illustrator 27.0.0, SVG Export Plug-In . SVG Version: 6.00 Build 0)  -->
<svg version="1.1" id="Layer_1" xmlns="http://www.w3.org/2000/svg" xmlns:xlink="http://www.w3.org/1999/xlink" x="0px" y="0px"
	 viewBox="0 0 48 48" style="enable-background:new 0 0 48 48;" xml:space="preserve">
<style type="text/css">
	.st0{fill:#4898A0;}
</style>
<path class="st0" d="M13.4,42L13,38.7l6.4-17.5c0.4,0.4,0.8,0.7,1.2,0.9s0.9,0.4,1.4,0.6l-6.1,17L13.4,42z M34.5,42l-2.4-2.3
	l-6.2-16.9c0.5-0.2,1-0.4,1.5-0.6s0.9-0.5,1.2-0.9L35,38.7L34.5,42z M24,22c-1.7,0-3.1-0.6-4.2-1.8S18,17.7,18,16
	c0-1.4,0.4-2.6,1.2-3.7c0.8-1.1,1.9-1.8,3.3-2.1V6h3v4.2c1.4,0.3,2.5,1,3.3,2.1c0.8,1.1,1.2,2.3,1.2,3.7c0,1.7-0.6,3.1-1.8,4.2
	S25.7,22,24,22z M24,19c0.8,0,1.5-0.3,2.1-0.9S27,16.8,27,16c0-0.8-0.3-1.5-0.9-2.1S24.8,13,24,13s-1.5,0.3-2.1,0.9S21,15.2,21,16
	c0,0.8,0.3,1.5,0.9,2.1S23.2,19,24,19z"/>
</svg>
