<?xml version="1.0" encoding="utf-8"?>
<!-- Generator: Adobe Illustrator 27.0.0, SVG Export Plug-In . SVG Version: 6.00 Build 0)  -->
<svg version="1.1" id="Layer_1" xmlns="http://www.w3.org/2000/svg" xmlns:xlink="http://www.w3.org/1999/xlink" x="0px" y="0px"
	 viewBox="0 0 48 48" style="enable-background:new 0 0 48 48;" xml:space="preserve">
<style type="text/css">
	.st0{fill:#4898A0;}
</style>
<path class="st0" d="M38.2,44c-0.2,0-0.4,0-0.5-0.1c-0.2-0.1-0.3-0.2-0.5-0.3L25.1,31.5c-0.2-0.2-0.3-0.3-0.4-0.5
	c-0.1-0.2-0.1-0.3-0.1-0.5c0-0.2,0-0.4,0.1-0.5c0.1-0.2,0.2-0.3,0.4-0.5l4.2-4.2c0.2-0.2,0.3-0.3,0.5-0.4c0.2-0.1,0.4-0.1,0.5-0.1
	c0.2,0,0.4,0,0.5,0.1c0.2,0.1,0.3,0.2,0.5,0.4l12.1,12.1c0.2,0.2,0.3,0.3,0.3,0.5c0.1,0.2,0.1,0.3,0.1,0.5c0,0.2,0,0.4-0.1,0.5
	c-0.1,0.2-0.2,0.3-0.3,0.5l-4.2,4.2c-0.2,0.2-0.3,0.3-0.5,0.3C38.6,44,38.4,44,38.2,44z M38.2,40.4l2.2-2.2l-10-10l-2.1,2.1
	L38.2,40.4z M9.8,44c-0.2,0-0.4,0-0.6-0.1c-0.2-0.1-0.4-0.2-0.5-0.3l-4.2-4.2c-0.2-0.2-0.3-0.3-0.3-0.5S4,38.5,4,38.2s0-0.4,0.1-0.5
	c0.1-0.2,0.2-0.3,0.3-0.5L15.7,26H20l1.9-1.9l-8.8-8.8h-2.9L4,9.1l4.9-5l6.2,6.3v2.9L24,22l6.5-6.5l-3.4-3.4l2.8-2.8h-5.6l-0.9-0.9
	L29.8,2l0.9,0.9v5.7l2.8-2.8l8.5,8.4c0.5,0.5,0.9,1.1,1.2,1.7c0.3,0.7,0.4,1.3,0.4,2.1c0,0.7-0.1,1.3-0.3,1.9
	c-0.2,0.6-0.5,1.2-0.9,1.7L38,17.4l-2.8,2.8l-2.6-2.6L22,28.1v4.2L10.8,43.5c-0.2,0.2-0.3,0.3-0.5,0.3C10.1,44,9.9,44,9.8,44z
	 M9.8,40.4l10-10v-2.1h-2.1l-10,10L9.8,40.4z M9.8,40.4l-2.2-2.2l1.1,1C8.7,39.3,9.8,40.4,9.8,40.4z M38.2,40.4l2.2-2.2L38.2,40.4z"
	/>
</svg>
