<?xml version="1.0" encoding="utf-8"?>
<!-- Generator: Adobe Illustrator 27.0.0, SVG Export Plug-In . SVG Version: 6.00 Build 0)  -->
<svg version="1.1" id="Layer_1" xmlns="http://www.w3.org/2000/svg" xmlns:xlink="http://www.w3.org/1999/xlink" x="0px" y="0px"
	 viewBox="0 0 48 48" style="enable-background:new 0 0 48 48;" xml:space="preserve">
<style type="text/css">
	.st0{fill:#4898A0;}
</style>
<path class="st0" d="M8.8,38c-0.8,0-1.4-0.3-1.9-0.8S6,36,6,35.2V12.8c0-0.8,0.3-1.4,0.8-1.9C7.3,10.3,8,10,8.8,10h30.5
	c0.8,0,1.4,0.3,2,0.8c0.5,0.5,0.8,1.2,0.8,1.9v22.5c0,0.8-0.3,1.4-0.8,2S40,38,39.2,38H8.8z M24,23.7l-16.5-11v22.5
	c0,0.3,0.1,0.6,0.3,0.8s0.5,0.3,0.8,0.3h30.5c0.3,0,0.6-0.1,0.8-0.3s0.3-0.5,0.3-0.8V12.7L24,23.7z M24,22l15.8-10.4H8.3L24,22z
	 M7.6,12.7v-1.1v23.7c0,0.3,0.1,0.6,0.3,0.8c0.2,0.2,0.5,0.3,0.8,0.3H7.6v-1.2V12.7z"/>
</svg>
