<?xml version="1.0" encoding="utf-8"?>
<!-- Generator: Adobe Illustrator 27.0.0, SVG Export Plug-In . SVG Version: 6.00 Build 0)  -->
<svg version="1.1" id="Layer_1" xmlns="http://www.w3.org/2000/svg" xmlns:xlink="http://www.w3.org/1999/xlink" x="0px" y="0px"
	 viewBox="0 0 48 48" style="enable-background:new 0 0 48 48;" xml:space="preserve">
<style type="text/css">
	.st0{fill:#4898A0;}
</style>
<path class="st0" d="M38.5,22.8c-0.3-3.8-1.8-7.1-4.5-9.8s-5.9-4.2-9.7-4.4V7c2.1,0.1,4.1,0.6,6,1.4c1.9,0.9,3.5,2,4.9,3.4
	c1.4,1.4,2.5,3.1,3.4,4.9c0.9,1.9,1.4,3.9,1.5,6H38.5z M30.3,22.8c-0.3-1.5-1-2.9-2.1-4s-2.4-1.8-3.9-2v-1.6c2,0.3,3.6,1.1,5,2.5
	c1.4,1.4,2.2,3.1,2.5,5H30.3z M37.8,39.8c-3.4,0-6.8-0.9-10.3-2.7s-6.7-4.1-9.6-7c-2.9-2.8-5.2-6-7-9.5s-2.7-7-2.7-10.4
	c0-0.6,0.2-1.1,0.6-1.5C9.1,8.2,9.6,8,10.2,8h4.4c0.6,0,1.1,0.2,1.5,0.5c0.4,0.3,0.7,0.8,0.8,1.4l1,4.4c0.1,0.5,0.1,1,0,1.4
	c-0.1,0.4-0.3,0.8-0.7,1l-4.4,4.1c2,3.3,4.1,6.1,6.5,8.4s5.1,4.3,8.3,6.1l4.3-4.5c0.3-0.4,0.7-0.6,1.1-0.8c0.4-0.2,0.8-0.2,1.3-0.1
	L38,31c0.6,0.1,1.1,0.4,1.4,0.8c0.3,0.4,0.5,1,0.5,1.5v4.2c0,0.6-0.2,1.2-0.6,1.5C38.9,39.5,38.4,39.7,37.8,39.8z M12.1,19.6
	l4.2-3.9c0.1-0.1,0.2-0.2,0.2-0.4c0-0.2,0-0.4,0-0.5l-1-4.6c0-0.2-0.1-0.3-0.3-0.4c-0.1-0.1-0.3-0.1-0.5-0.1h-4.5
	c-0.2,0-0.3,0.1-0.4,0.1c-0.1,0.1-0.1,0.2-0.1,0.4c0,1.3,0.2,2.8,0.6,4.3S11.3,17.8,12.1,19.6z M29,36.2c1.4,0.7,2.9,1.2,4.5,1.6
	c1.7,0.3,3.1,0.5,4.3,0.5c0.2,0,0.3-0.1,0.4-0.2c0.1-0.1,0.2-0.2,0.2-0.3v-4.5c0-0.2,0-0.4-0.2-0.5c-0.1-0.1-0.3-0.2-0.5-0.2
	l-3.9-0.8c-0.2,0-0.3,0-0.4,0s-0.2,0.1-0.3,0.2L29,36.2z"/>
</svg>
